<svg version="1.1" viewBox="0 0 702.1 555.7" xmlns="http://www.w3.org/2000/svg">
  <path d="m489.64 454.03s9.6 47.7 46.1 50.9-38.6 63.8-105.1-3.2c0 0-34.8 83.1-89 11.3 0 0-47.7 77.7-92.7 1.1 0 0-46.6 68.6-88.4 3.8 0 0-56.3 62.2-104-5.9 0 0 55.7-8 60-40.7s-1.6-278.7-1.6-278.7 22.5-176.9 178.5-186 188.7 159.2 188.7 159.2z" fill="#fff"/>
  <g fill="#036994">
    <path d="m276.84 1.727c41.7-6 85.1 3.8 121.1 26.8 31 19.6 56.5 48.7 73.4 82.5 15.3 30.4 23.6 64.6 24.4 99 0.1 1.9 0.4 3.8 0.4 5.6v220.6c0 2.2-0.1 4.4 0.2 6.6 0.5 3.9 0 7.8 0.8 11.7 1.1 5.3 2.5 10.7 5.1 15.4 7.2 14.2 21 23.8 35.6 27 3 0.7 6.5 0.6 8.8 3.2 3.6 3.5 3.2 10.5-0.9 13.4-2 1.2-3.2 3.5-4.8 5.2-12.7 15.1-31.5 23.8-50.4 24.6-21.4 1.4-43.3-7.3-58-24-2.4 4.1-5 8.1-8.3 11.7-3.2 3.8-7.1 6.7-10.9 9.5-3 1.5-5.8 3.5-9 4.7-8.8 3.9-18.6 4.7-28 3.7-13.5-1.8-26-9-35.1-19.7-10.2 16.4-28.4 26.8-47 26.4-5.3 0.3-10.5-1.1-15.5-2.2-12.1-3.7-22.9-11.9-30.2-22.7-7.8 10.9-19.4 18.4-31.9 21.4-9.7 2.2-20 1.9-29.5-1.4-7.6-2.5-14.5-6.8-20.4-12.4-2-1.7-3.5-4.1-5.5-5.9-12.2 11.4-28.2 18.2-44.5 19.1-18.4 1.3-37.3-4.6-51.6-17.1-4.3-3.6-8-7.8-11.4-12.4-1.3-1.8-1.6-4.1-2.9-6-2.5-3.8-1.3-9.4 2.3-11.9 2.4-1.9 5.6-1.5 8.4-1.9 10.6-1.5 20.8-6.3 28.9-13.6 9.6-8.7 16.2-21.7 16.3-35.2 0.5-12.7 0.1-25.4 0.2-38.1v-199c0.2-2.8-0.5-5.7-0.4-8.5 1.1-30.3 7.9-60.4 20.2-87.8 13.7-30.6 34.2-57.8 59.6-78.3 26.5-21.4 57.8-35.5 90.5-40m14.4 16.2c-25.6 1.6-50.8 9.6-73.2 22.8-21.4 12.6-40.3 30.1-55.2 50.7-23.3 31.9-36.9 71.5-39.1 111.8 0.3 8.3 0.1 16.7 0.2 25v148.9c-0.1 25.6 0.2 51.2-0.1 76.7-0.4 11.7-3.8 23.2-9.9 33-9.3 15.5-24.7 26.3-41.3 30.9 5.3 5.1 11.4 9.2 18.1 11.9 8.7 3.7 18.3 4.7 27.6 3.9 12.8-1.1 25.2-7 34.4-16.5 1.6-1.4 1.4-3.9 2.8-5.5 2.5-3.5 7.7-4.4 11.1-1.9 2.1 1.4 3.1 4 4.4 6.1 1.8 2.8 3.8 5.5 6 7.9 5.2 5.7 12.1 9.4 19.4 11.1 3.8 0.9 7.7 0.8 11.5 0.7 14.2-0.9 27.4-10.7 33-24.6 2.2-6.4 11.3-8.1 15.4-3 1.7 2 2.1 4.8 3.4 7.2 4.9 10.1 13.7 17.9 23.9 21.1 4.2 1 8.5 1.9 12.8 1.6 14-0.3 27.5-9.2 33.7-22.5 1.6-2.8 2-6.3 4-8.9 2.7-3.6 8.3-4.1 11.6-1.2 1.7 1.3 2.3 3.6 3.6 5.2 1.4 1.8 2.5 3.8 3.9 5.6 7.6 9.7 19.2 16 31.2 15.5 6.3 0.1 12.8-1.4 18.3-4.8 5.8-3.3 11-8.1 14.7-14 1.8-2.8 2.7-6.1 4.3-9 1.1-1.7 0.6-4 1.6-5.7 1.7-3.9 6.2-5.9 10-4.4 3.1 1 4.8 4.1 6.8 6.7 3.4 5.7 8 10.6 13.2 14.6 17.1 13 40.9 14.7 59.8 5.1 4.4-2.2 8.4-5.3 12.3-8.5-10.3-3.9-19.6-10.3-27.3-18.5-6.7-7.4-12-16.5-14.7-26.4-1.9-6-2.4-12.4-3-18.7v-226.8c0-1.9-0.4-3.8-0.4-5.7-0.1-18.8-2.5-37.6-7.4-55.7-10.3-39.1-32.1-74.8-61.8-100.5-13.8-11.7-29.2-21.7-45.7-28.3-23.8-10.2-49-14.5-73.9-12.9z"/>
    <path d="m375.74 209.83c-9.5 3.3-20 3.8-29.8 1.1-11.6-3.1-22-10.4-28.7-20.4-6.3-9.2-9.4-20.5-8.7-31.6 0.6-11 5-21.8 12.3-30.2 0.5-0.6 1.2-0.9 1.9-1.1 16.7-4.6 33.4-9.3 50.1-14 1.3-0.4 2.6 0.4 3.9 0.8 12 4.4 22.1 13.5 27.7 24.9 4.2 8.5 6 18.2 5 27.6-1.1 11.1-6.1 21.9-13.9 30-5.4 5.9-12.3 10.3-19.8 12.9z"/>
    <path d="m234.54 212.33c-11.6-1.2-22.6-6.5-30.8-14.9-12.2-12.3-17.4-31.1-12.9-47.9 4.1-16.7 17.4-30.9 33.9-35.8 17.1 4.3 34.1 9.1 51.2 13.6 1.6 0.2 2.5 1.7 3.4 2.8 4.9 6.1 8.4 13.2 10 20.9 2.4 10.3 1.3 21.5-3 31.2-4.2 9.8-11.6 18.1-20.8 23.4-9.2 5.5-20.3 7.9-31 6.7z"/>
  </g>
  <g stroke="#036994" stroke-linecap="round" stroke-miterlimit="10" stroke-width="14.473">
    <path d="m217.14 258.13s78 36.2 163.2 0" fill="none"/>
    <path d="m83.636 341.73s-30.6-18.5-57.3 10.4c-15.1 20.6-19.1 43.6-19.1 43.6l23.5-13.9 3.9 26.3 18.3-15 10.4 21.1s9.7-34.1 19-31.7c9.4 2.3 15.3-28.6 1.3-40.8z" fill="#fff" stroke-linejoin="round"/>
    <path d="m581.94 302.13s-15.9-34.1-41.2-30.8c-25.4 3.4-9.4 19.3-9.4 19.3s-24.8 6-9.8 20.6-17 5.3-4.9 17.7 19.2 23.3 41 20.2c-0.1 0.1 35.9-8.2 24.3-47z" fill="#fff" stroke-linejoin="round"/>
  </g>
  <path d="m676.44 139.23c8.8-22.8 22.9-53.1 23-53.4 1.4-3.1 0.1-6.7-3-8.1s-6.7-0.1-8.1 3c-0.1 0.2-6.9 14.8-14 31.4l-10.3-20.2c-1.5-3-5.2-4.2-8.2-2.7s-4.2 5.2-2.7 8.2l14.7 28.8c0.1 0.2 0.2 0.4 0.4 0.6-1.1 2.7-2.2 5.4-3.2 8-6.3 16.3-7.9 26.7-8.2 32.7l-32.9 38-4.4-25.9c-0.6-3.3-3.8-5.6-7.1-5s-5.6 3.7-5 7.1l6.1 35.8-49.8 57.6c-1.1 1.3-1.6 2.9-1.5 4.6 0.2 1.7 1 3.2 2.3 4.2l6.7 5.3c1.3 1 2.9 1.5 4.5 1.3s3.1-1 4.1-2.3l86.1-110.3 32.7-16.3c3-1.5 4.3-5.2 2.8-8.2s-5.2-4.3-8.2-2.8l-22.7 11.3-0.7-0.5c0.9-5.1 2.8-12.4 6.6-22.2z" fill="#036994"/>
  <path d="m521.64 334.23-10.8 14.9c-1.1 1.3-1.6 2.9-1.5 4.6 0.2 1.7 1 3.2 2.3 4.2l6.7 5.3c1.3 1 2.9 1.5 4.5 1.3s3.1-1 4.1-2.3l13.8-17.6h-11.6z" fill="#036994"/>
</svg>
